<svg xmlns="http://www.w3.org/2000/svg" width="149" height="140" viewBox="0 0 149 140" fill="none">
  <g clip-path="url(#clip0_652_10095)">
    <path d="M143.578 69.8742C145.876 67.3609 147.486 64.3588 148.27 61.1286C149.053 57.8983 148.985 54.5374 148.072 51.3374C147.159 48.1374 145.428 45.1949 143.03 42.7653C140.631 40.3356 137.638 38.4922 134.31 37.3948C134.962 34.1389 134.758 30.7826 133.717 27.6173C132.675 24.452 130.826 21.5732 128.332 19.2307C125.837 16.8882 122.771 15.1527 119.401 14.1747C116.03 13.1968 112.456 13.006 108.989 13.6189C107.822 10.4923 105.859 7.68062 103.272 5.42793C100.684 3.17524 97.5508 1.54966 94.1429 0.692319C90.7349 -0.165018 87.1556 -0.228196 83.7157 0.508271C80.2758 1.24474 77.0794 2.75859 74.4038 4.91839C71.7275 2.76008 68.5308 1.24759 65.0912 0.512139C61.6515 -0.223311 58.0726 -0.15951 54.6651 0.698003C51.2576 1.55552 48.1244 3.18084 45.5372 5.43299C42.95 7.68513 40.9871 10.4961 39.8186 13.622C36.3517 13.0101 32.7783 13.2017 29.4082 14.1803C26.0381 15.1588 22.9731 16.8948 20.4791 19.2375C17.9851 21.5803 16.1374 24.4591 15.0962 27.6242C14.0551 30.7894 13.8519 34.1453 14.5044 37.4008C11.1758 38.4982 8.18261 40.3417 5.78445 42.7713C3.38628 45.201 1.65556 48.1435 0.742453 51.3435C-0.170658 54.5435 -0.238605 57.9044 0.544529 61.1346C1.32766 64.3649 2.93824 67.3669 5.2365 69.8803C2.93754 72.3936 1.32647 75.3958 0.543112 78.6264C-0.240244 81.857 -0.172239 85.2183 0.741272 88.4186C1.65478 91.6189 3.38617 94.5615 5.78516 96.9909C8.18414 99.4204 11.1783 101.263 14.5076 102.36C13.8546 105.615 14.0575 108.972 15.0988 112.137C16.1401 115.302 17.9883 118.181 20.4829 120.523C22.9775 122.866 26.0432 124.601 29.4139 125.579C32.7846 126.556 36.3583 126.746 39.825 126.133C40.9935 129.258 42.9565 132.069 45.5437 134.322C48.1309 136.574 51.2641 138.199 54.6716 139.057C58.0791 139.914 61.6579 139.978 65.0976 139.242C68.5373 138.507 71.734 136.994 74.4103 134.836C77.0866 136.995 80.2834 138.508 83.7235 139.244C87.1635 139.979 90.7428 139.916 94.1505 139.058C97.5583 138.2 100.692 136.574 103.279 134.321C105.866 132.068 107.828 129.256 108.996 126.13C112.462 126.743 116.036 126.552 119.407 125.574C122.777 124.596 125.843 122.861 128.337 120.518C130.832 118.175 132.68 115.296 133.721 112.131C134.763 108.966 134.966 105.609 134.313 102.354C137.642 101.257 140.635 99.4132 143.034 96.9834C145.432 94.5537 147.162 91.611 148.075 88.4108C148.988 85.2105 149.056 81.8495 148.272 78.6192C147.488 75.389 145.877 72.3871 143.578 69.8742Z" fill="#18C07A"/>
    <path d="M61.0509 96.5476L40.3739 77.1417C39.5892 76.4035 39.1484 75.4031 39.1484 74.3601C39.1484 73.3171 39.5892 72.3167 40.3739 71.5785L42.886 69.2164C43.672 68.4794 44.7373 68.0655 45.8479 68.0655C46.9586 68.0655 48.0239 68.4794 48.8099 69.2164L63.8403 83.3226L99.2383 47.9965C100 47.2375 101.051 46.7934 102.161 46.7616C103.271 46.7298 104.349 47.1129 105.159 47.8269L107.739 50.1133C108.548 50.8287 109.021 51.8166 109.055 52.8598C109.089 53.903 108.68 54.9161 107.919 55.6765L67.0748 96.4597C66.6902 96.8447 66.2271 97.153 65.7131 97.3665C65.1991 97.58 64.6446 97.6942 64.0827 97.7024C63.5207 97.7106 62.9627 97.6126 62.4419 97.4142C61.9211 97.2158 61.448 96.9211 61.0509 96.5476Z" fill="white"/>
  </g>
  <defs>
    <clipPath id="clip0_652_10095">
      <rect width="148.815" height="139.754" fill="white"/>
    </clipPath>
  </defs>
</svg>