<svg xmlns="http://www.w3.org/2000/svg" width="24" height="24" viewBox="0 0 24 24" fill="none">
  <g clip-path="url(#clip0_517_9782)">
    <path fill-rule="evenodd" clip-rule="evenodd" d="M11.9926 19.7962C7.69033 19.7962 4.18945 16.2953 4.18945 11.993C4.18945 7.69076 7.69033 4.18988 11.9926 4.18988C16.2949 4.18988 19.7958 7.69076 19.7958 11.993C19.7958 16.2953 16.2949 19.7962 11.9926 19.7962Z" fill="#FFC107"/>
    <path fill-rule="evenodd" clip-rule="evenodd" d="M11.9925 3.00885C11.7957 3.00885 11.627 2.85419 11.627 2.64329V0.365615C11.627 0.168778 11.7957 6.10352e-05 11.9925 6.10352e-05C12.2034 6.10352e-05 12.3581 0.168778 12.3581 0.365615V2.64329C12.3581 2.85419 12.2034 3.00885 11.9925 3.00885Z" fill="#FF9D05"/>
    <path fill-rule="evenodd" clip-rule="evenodd" d="M16.675 4.26015C16.6047 4.26015 16.5485 4.24609 16.4922 4.21797C16.3095 4.11955 16.2532 3.89459 16.3516 3.72587L17.5045 1.74345C17.6029 1.56067 17.8279 1.50443 17.9966 1.60285C18.1653 1.70127 18.2356 1.92623 18.1232 2.109L16.9843 4.07737C16.914 4.20391 16.8015 4.26015 16.675 4.26015Z" fill="#FF9D05"/>
    <path fill-rule="evenodd" clip-rule="evenodd" d="M20.0911 7.69075C19.9646 7.69075 19.8381 7.62045 19.7818 7.50797C19.6834 7.3252 19.7396 7.1143 19.9084 7.00182L21.8908 5.86298C22.0595 5.76457 22.2845 5.8208 22.3829 6.00358C22.4813 6.1723 22.4251 6.39725 22.2563 6.49567L20.2739 7.63451C20.2177 7.67669 20.1614 7.69075 20.0911 7.69075Z" fill="#FF9D05"/>
    <path fill-rule="evenodd" clip-rule="evenodd" d="M23.6348 12.3586H21.3431C21.1463 12.3586 20.9775 12.204 20.9775 11.9931C20.9775 11.7962 21.1463 11.6275 21.3431 11.6275H23.6348C23.8317 11.6275 24.0004 11.7962 24.0004 11.9931C24.0004 12.204 23.8317 12.3586 23.6348 12.3586Z" fill="#FF9D05"/>
    <path fill-rule="evenodd" clip-rule="evenodd" d="M22.0736 18.1793C22.0033 18.1793 21.947 18.1653 21.8908 18.1231L19.9084 16.9843C19.7396 16.8858 19.6834 16.6609 19.7818 16.4922C19.8802 16.3094 20.1052 16.2532 20.2739 16.3516L22.2563 17.5045C22.4251 17.6029 22.4813 17.8278 22.3829 17.9966C22.3266 18.109 22.2001 18.1793 22.0736 18.1793Z" fill="#FF9D05"/>
    <path fill-rule="evenodd" clip-rule="evenodd" d="M17.8138 22.4394C17.6873 22.4394 17.5608 22.3691 17.5045 22.2566L16.3516 20.2742C16.2532 20.1055 16.3095 19.8805 16.4922 19.7821C16.6609 19.6837 16.8859 19.74 16.9843 19.9087L18.1232 21.8911C18.2356 22.0598 18.1653 22.2848 17.9966 22.3832C17.9404 22.4254 17.8701 22.4394 17.8138 22.4394Z" fill="#FF9D05"/>
    <path fill-rule="evenodd" clip-rule="evenodd" d="M11.9925 24.0001C11.7957 24.0001 11.627 23.8314 11.627 23.6345V21.3428C11.627 21.146 11.7957 20.9772 11.9925 20.9772C12.2034 20.9772 12.3581 21.146 12.3581 21.3428V23.6345C12.3581 23.8314 12.2034 24.0001 11.9925 24.0001Z" fill="#FF9D05"/>
    <path fill-rule="evenodd" clip-rule="evenodd" d="M6.18672 22.4394C6.11643 22.4394 6.06019 22.4254 6.00395 22.3832C5.82117 22.2848 5.76493 22.0598 5.86335 21.8911L7.00219 19.9087C7.11467 19.74 7.32556 19.6697 7.50834 19.7822C7.67706 19.8806 7.7333 20.1055 7.63488 20.2742L6.49604 22.2567C6.42574 22.3691 6.31326 22.4394 6.18672 22.4394Z" fill="#FF9D05"/>
    <path fill-rule="evenodd" clip-rule="evenodd" d="M1.92598 18.1793C1.79944 18.1793 1.67291 18.109 1.60261 17.9966C1.50419 17.8278 1.56043 17.6029 1.7432 17.5045L3.72563 16.3516C3.89435 16.2532 4.1193 16.3094 4.21772 16.4922C4.31614 16.6609 4.2599 16.8858 4.09118 16.9843L2.10876 18.1231C2.05252 18.1653 1.98222 18.1793 1.92598 18.1793Z" fill="#FF9D05"/>
    <path fill-rule="evenodd" clip-rule="evenodd" d="M2.64323 12.3586H0.365554C0.168717 12.3586 0 12.204 0 11.9931C0 11.7962 0.168717 11.6275 0.365554 11.6275H2.64323C2.85413 11.6275 3.00879 11.7962 3.00879 11.9931C3.00879 12.204 2.85413 12.3586 2.64323 12.3586Z" fill="#FF9D05"/>
    <path fill-rule="evenodd" clip-rule="evenodd" d="M3.90841 7.69075C3.83811 7.69075 3.78187 7.67669 3.72563 7.63451L1.7432 6.49567C1.56043 6.39725 1.50419 6.1723 1.60261 6.00358C1.70103 5.8208 1.92598 5.76457 2.10876 5.86298L4.09118 7.00182C4.2599 7.1143 4.31614 7.3252 4.21772 7.50797C4.14742 7.62045 4.02089 7.69075 3.90841 7.69075Z" fill="#FF9D05"/>
    <path fill-rule="evenodd" clip-rule="evenodd" d="M7.32556 4.26015C7.19903 4.26015 7.07249 4.20391 7.00219 4.09143L5.86335 2.109C5.76493 1.92623 5.82117 1.70127 6.00395 1.60285C6.17266 1.50443 6.39762 1.56067 6.49604 1.74345L7.63488 3.72587C7.7333 3.89459 7.67706 4.11955 7.50834 4.21797C7.4521 4.24609 7.3818 4.26015 7.32556 4.26015Z" fill="#FF9D05"/>
    <path fill-rule="evenodd" clip-rule="evenodd" d="M14.636 16.4218C14.5938 16.4218 14.5516 16.4218 14.5094 16.3937L11.9927 15.4236L9.49011 16.3937C9.37763 16.45 9.23703 16.4218 9.13862 16.3515C9.0402 16.2812 8.98396 16.1688 8.99802 16.0422L9.15267 13.3568L7.43738 11.276C7.36709 11.1775 7.33897 11.051 7.38115 10.9245C7.42333 10.812 7.50768 10.7136 7.63422 10.6855L10.2353 10.0106L11.6975 7.7329C11.7537 7.63449 11.8803 7.57825 11.9927 7.57825C12.1193 7.57825 12.2318 7.63449 12.3021 7.7329L13.7643 10.0106L16.3653 10.6855C16.4778 10.7136 16.5762 10.812 16.6184 10.9245C16.6606 11.051 16.6325 11.1775 16.5481 11.276L14.8469 13.3568L15.0015 16.0422C15.0015 16.1688 14.9453 16.2812 14.8469 16.3515C14.7906 16.4078 14.7063 16.4218 14.636 16.4218Z" fill="white"/>
  </g>
  <defs>
    <clipPath id="clip0_517_9782">
      <rect width="24" height="24" fill="white"/>
    </clipPath>
  </defs>
</svg>