<svg xmlns="http://www.w3.org/2000/svg" width="55" height="55" viewBox="0 0 55 55" fill="none">
  <path d="M50 26.375V33.35C50 38.3905 50 40.9107 49.0191 42.8359C48.1562 44.5294 46.7794 45.9062 45.0859 46.7691C43.1607 47.75 40.6405 47.75 35.6 47.75H19.4C14.3595 47.75 11.8393 47.75 9.91409 46.7691C8.22063 45.9062 6.8438 44.5294 5.98094 42.8359C5 40.9107 5 38.3905 5 33.35V21.65C5 16.6095 5 14.0893 5.98094 12.1641C6.8438 10.4706 8.22063 9.0938 9.91409 8.23094C11.8393 7.25 14.3595 7.25 19.4 7.25H28.625M43.25 18.5V5M36.5 11.75H50M36.5 27.5C36.5 32.4706 32.4706 36.5 27.5 36.5C22.5294 36.5 18.5 32.4706 18.5 27.5C18.5 22.5294 22.5294 18.5 27.5 18.5C32.4706 18.5 36.5 22.5294 36.5 27.5Z" stroke="#929292" stroke-width="5" stroke-linecap="round" stroke-linejoin="round"/>
</svg>