<svg xmlns="http://www.w3.org/2000/svg" width="16" height="17" viewBox="0 0 16 17" fill="none">
  <g clip-path="url(#clip0_223_9671)">
    <path d="M14.6667 8.16634V10.233C14.6667 11.7265 14.6667 12.4732 14.3761 13.0436C14.1204 13.5454 13.7124 13.9534 13.2107 14.209C12.6403 14.4997 11.8935 14.4997 10.4 14.4997H5.60004C4.10657 14.4997 3.35983 14.4997 2.7894 14.209C2.28763 13.9534 1.87969 13.5454 1.62402 13.0436C1.33337 12.4732 1.33337 11.7265 1.33337 10.233V6.76634C1.33337 5.27287 1.33337 4.52613 1.62402 3.9557C1.87969 3.45393 2.28763 3.04599 2.7894 2.79032C3.35983 2.49967 4.10657 2.49967 5.60004 2.49967H8.33337M12.6667 5.83301V1.83301M10.6667 3.83301H14.6667M10.6667 8.49967C10.6667 9.97243 9.4728 11.1663 8.00004 11.1663C6.52728 11.1663 5.33337 9.97243 5.33337 8.49967C5.33337 7.02692 6.52728 5.83301 8.00004 5.83301C9.4728 5.83301 10.6667 7.02692 10.6667 8.49967Z" stroke="white" stroke-width="2" stroke-linecap="round" stroke-linejoin="round"/>
  </g>
  <defs>
    <clipPath id="clip0_223_9671">
      <rect width="16" height="16" fill="white" transform="translate(0 0.5)"/>
    </clipPath>
  </defs>
</svg>