<svg width="40" height="40" viewBox="0 0 40 40" fill="none" xmlns="http://www.w3.org/2000/svg">
<g id="flash 1">
<g id="flash">
<path id="Vector" d="M25.7153 17.9061C25.7892 18.0298 25.8298 18.1705 25.833 18.3146C25.8363 18.4586 25.8022 18.6011 25.7341 18.728L19.9008 29.5613C19.8151 29.7269 19.6754 29.8582 19.5049 29.9334C19.3344 30.0086 19.1432 30.0232 18.9633 29.9747C18.7833 29.9294 18.6236 29.8252 18.5095 29.6789C18.3954 29.5325 18.3334 29.3523 18.3333 29.1667V21.6667H15C14.8534 21.6667 14.7093 21.6281 14.5824 21.5547C14.4554 21.4813 14.3501 21.3757 14.277 21.2486C14.204 21.1214 14.1658 20.9773 14.1662 20.8306C14.1667 20.684 14.2059 20.5401 14.2798 20.4134L20.1131 10.4134C20.2053 10.255 20.3471 10.1314 20.5166 10.0618C20.6861 9.99211 20.8739 9.98028 21.0508 10.0281C21.2277 10.0759 21.3839 10.1807 21.4953 10.3263C21.6066 10.4719 21.6668 10.6501 21.6667 10.8333V17.5H25C25.1442 17.5 25.2859 17.5374 25.4113 17.6086C25.5367 17.6797 25.6415 17.7823 25.7153 17.9061ZM35 20C35 22.9667 34.1203 25.8668 32.4721 28.3336C30.8238 30.8003 28.4811 32.7229 25.7403 33.8582C22.9994 34.9935 19.9834 35.2906 17.0737 34.7118C14.1639 34.133 11.4912 32.7044 9.3934 30.6066C7.29562 28.5088 5.86701 25.8361 5.28823 22.9264C4.70945 20.0166 5.0065 17.0006 6.14181 14.2597C7.27713 11.5189 9.19972 9.17618 11.6665 7.52796C14.1332 5.87973 17.0333 5 20 5C23.9768 5.00461 27.7895 6.58644 30.6015 9.39849C33.4136 12.2105 34.9954 16.0232 35 20ZM33.3333 20C33.3333 17.3629 32.5514 14.7851 31.0863 12.5924C29.6212 10.3997 27.5388 8.69077 25.1025 7.68161C22.6661 6.67244 19.9852 6.40839 17.3988 6.92286C14.8124 7.43733 12.4366 8.70721 10.5719 10.5719C8.70722 12.4366 7.43734 14.8124 6.92287 17.3988C6.4084 19.9852 6.67245 22.6661 7.68161 25.1024C8.69078 27.5388 10.3997 29.6212 12.5924 31.0863C14.7851 32.5513 17.3629 33.3333 20 33.3333C23.535 33.3293 26.924 31.9232 29.4236 29.4236C31.9233 26.924 33.3293 23.535 33.3333 20Z" fill="#FA5A00"/>
</g>
</g>
</svg>
