<svg xmlns="http://www.w3.org/2000/svg" width="16" height="16" viewBox="0 0 16 16" fill="none">
  <path d="M2.25728 3.77791C1.75306 3.21437 1.50094 2.93259 1.49143 2.69312C1.48317 2.48509 1.57257 2.28515 1.73311 2.15259C1.91791 2 2.29601 2 3.05221 2H12.9475C13.7037 2 14.0818 2 14.2666 2.15259C14.4271 2.28515 14.5165 2.48509 14.5083 2.69312C14.4988 2.93259 14.2466 3.21437 13.7424 3.77791L9.93826 8.02962C9.83775 8.14196 9.78749 8.19813 9.75166 8.26205C9.71987 8.31875 9.69655 8.37978 9.68244 8.44323C9.66652 8.51476 9.66652 8.59013 9.66652 8.74087V12.3056C9.66652 12.436 9.66652 12.5011 9.64549 12.5575C9.62691 12.6073 9.59669 12.6519 9.55735 12.6877C9.51283 12.7281 9.45231 12.7524 9.33126 12.8008L7.06459 13.7074C6.81956 13.8054 6.69705 13.8545 6.5987 13.834C6.51269 13.8161 6.43722 13.765 6.38869 13.6918C6.33318 13.6081 6.33318 13.4762 6.33318 13.2122V8.74087C6.33318 8.59013 6.33318 8.51476 6.31726 8.44323C6.30315 8.37978 6.27983 8.31875 6.24804 8.26205C6.21221 8.19813 6.16195 8.14196 6.06144 8.02962L2.25728 3.77791Z" stroke="#FA5A00" stroke-width="2" stroke-linecap="round" stroke-linejoin="round"/>
</svg>