<svg xmlns="http://www.w3.org/2000/svg" width="24" height="30" viewBox="0 0 24 30" fill="none">
  <path d="M17.7812 0.333496C17.7812 0.333496 15.6 0.386326 13.6 2.38632C11.6 4.38632 11.9374 7.08066 11.9374 7.08066C11.9374 7.08066 13.9172 7.44268 16.0302 5.32972C18.1432 3.21675 17.7812 0.333496 17.7812 0.333496Z" fill="#090A0A"/>
  <path d="M12.166 8.78621C10.6918 8.77613 9.78619 7.50319 7.27546 7.50319C5.01633 7.50319 2.75164 8.96076 1.78868 10.3711C0.830188 11.7749 0 13.3145 0 16.439C0 19.5636 1.50442 24.9371 5.2038 28.5749C5.83734 29.1978 6.67598 29.6661 7.63272 29.6951C9.35347 29.7472 10.4101 28.4591 12.5837 28.4591C14.7572 28.4591 15.4113 29.6951 17.3736 29.6951C18.2659 29.6951 19.2835 29.2887 20.2717 28.2378C21.5396 26.8894 23.113 24.3212 23.9144 21.8579C23.9144 21.8579 19.9011 20.308 19.9496 15.8403C19.9899 12.1372 23.1345 10.3158 23.1345 10.3158C23.1345 10.3158 21.298 7.38745 17.3937 7.38745C14.6969 7.40762 13.4893 8.79527 12.166 8.78621Z" fill="#090A0A"/>
</svg>