<svg xmlns="http://www.w3.org/2000/svg" width="32" height="32" viewBox="0 0 32 32" fill="none">
  <path d="M10.4344 28.1266C21.7552 28.1266 27.9472 18.7474 27.9472 10.6138C27.9472 10.3474 27.9472 10.0822 27.9292 9.81816C29.1338 8.94685 30.1736 7.86802 31 6.63216C29.8767 7.12992 28.685 7.45635 27.4648 7.60056C28.7497 6.83134 29.7113 5.62149 30.1708 4.19616C28.9626 4.91311 27.6408 5.41838 26.2624 5.69016C25.3344 4.70338 24.107 4.04996 22.7702 3.83102C21.4335 3.61207 20.0618 3.8398 18.8675 4.47898C17.6731 5.11815 16.7228 6.13313 16.1634 7.36685C15.6041 8.60056 15.4669 9.98424 15.7732 11.3038C13.3261 11.1811 10.9322 10.5452 8.74677 9.43727C6.56138 8.32938 4.6334 6.77429 3.088 4.87296C2.30091 6.22796 2.05984 7.832 2.41387 9.35849C2.76791 10.885 3.69043 12.2192 4.9936 13.0894C4.01409 13.0603 3.05594 12.7961 2.2 12.319C2.2 12.3442 2.2 12.3706 2.2 12.397C2.20039 13.818 2.69231 15.1952 3.59234 16.2949C4.49236 17.3946 5.74508 18.1492 7.138 18.4306C6.23184 18.6777 5.2811 18.7138 4.3588 18.5362C4.75211 19.7592 5.51784 20.8287 6.54888 21.5951C7.57993 22.3615 8.82474 22.7864 10.1092 22.8106C7.92968 24.5235 5.23727 25.4534 2.4652 25.4506C1.97548 25.4496 1.48624 25.42 1 25.3618C3.81476 27.1681 7.0899 28.1262 10.4344 28.1218" fill="#1DA1F2"/>
</svg>