<svg xmlns="http://www.w3.org/2000/svg" width="40" height="40" viewBox="0 0 40 40" fill="none">
  <g clip-path="url(#clip0_43_732)">
    <path d="M24.65 28.6875C26.075 28.225 26.5938 25.9625 27.7812 25.0938C28.9813 24.225 31.2938 24.425 32.1688 23.225C33.0312 22.0375 32.1313 19.9063 32.5938 18.475C33.0438 17.1 35.0375 15.9125 35.0375 14.3875C35.0375 12.8625 33.0438 11.6688 32.5938 10.2938C32.1313 8.86878 33.0312 6.73128 32.1688 5.55003C31.2938 4.35003 28.9813 4.54378 27.7812 3.67503C26.6 2.81253 26.075 0.543777 24.65 0.0812768C23.275 -0.362473 21.5312 1.15003 20.0062 1.15003C18.4812 1.15003 16.7312 -0.362473 15.3562 0.0812768C13.9312 0.543777 13.4125 2.81253 12.225 3.67503C11.025 4.54378 8.7125 4.35003 7.8375 5.54378C6.975 6.73128 7.875 8.86878 7.4125 10.2938C6.9625 11.6688 4.96875 12.8625 4.96875 14.3875C4.96875 15.9125 6.9625 17.1 7.4125 18.475C7.875 19.9063 6.975 22.0375 7.8375 23.225C8.7125 24.4188 11.025 24.225 12.225 25.0938C13.4062 25.9625 13.9312 28.225 15.3562 28.6875C16.7312 29.1313 18.475 27.625 20.0062 27.625C21.525 27.625 23.275 29.1313 24.65 28.6875ZM20 23.3063C15.0687 23.3063 11.0812 19.3063 11.0812 14.3875C11.0812 9.45628 15.075 5.46878 20 5.46878C24.925 5.46878 28.9125 9.46253 28.9125 14.3875C28.9187 19.3125 24.925 23.3063 20 23.3063Z" fill="#FA5A00"/>
    <path d="M28.2187 25.7C27.8312 25.9875 27.4937 26.5438 27.1312 27.1313C26.5812 28.0313 25.9562 29.05 24.8812 29.4C24.6375 29.4813 24.375 29.5188 24.1062 29.5188C23.325 29.5188 22.5562 29.2063 21.8125 28.9C21.65 28.8313 21.4812 28.7688 21.3187 28.7063L23.7312 40L27.875 35.1438L33.8 36.0875L29 25.3438C28.6875 25.4437 28.4187 25.5562 28.2187 25.7Z" fill="#FA5A00"/>
    <path d="M15.8938 29.5188C15.625 29.5188 15.3625 29.4813 15.1188 29.4C14.0438 29.05 13.4125 28.025 12.8625 27.125C12.5 26.5375 12.1625 25.9875 11.775 25.7C11.575 25.5562 11.3 25.4437 11 25.3438L6.20001 36.0875L12.125 35.1438L16.2625 40L18.6813 28.7063C18.5125 28.7688 18.35 28.8313 18.1813 28.9C17.45 29.2063 16.675 29.5188 15.8938 29.5188Z" fill="#FA5A00"/>
    <path d="M26.4625 12.2876L22 11.6376L20 7.58765L18 11.6376L13.5375 12.2876L16.7687 15.4376L16.0062 19.8876L20 17.7814L23.9937 19.8876L23.2312 15.4376L26.4625 12.2876Z" fill="#FA5A00"/>
  </g>
  <defs>
    <clipPath id="clip0_43_732">
      <rect width="40" height="40" fill="white"/>
    </clipPath>
  </defs>
</svg>