<svg xmlns="http://www.w3.org/2000/svg" width="24" height="24" viewBox="0 0 24 24" fill="none">
  <path fill-rule="evenodd" clip-rule="evenodd" d="M12 22C17.5228 22 22 17.5229 22 12C22 6.47715 17.5228 2 12 2C6.47715 2 2 6.47715 2 12C2 17.5229 6.47715 22 12 22ZM12 24C18.6274 24 24 18.6274 24 12C24 5.37258 18.6274 0 12 0C5.37258 0 0 5.37258 0 12C0 18.6274 5.37258 24 12 24ZM12 4.99999C12.5523 4.99999 13 5.4477 13 5.99999V11H18C18.5523 11 19 11.4477 19 12C19 12.5523 18.5523 13 18 13H13V18C13 18.5523 12.5523 19 12 19C11.4477 19 11 18.5523 11 18V13H6C5.44771 13 5 12.5523 5 12C5 11.4477 5.44771 11 6 11H11V5.99999C11 5.4477 11.4477 4.99999 12 4.99999Z" fill="#627D98"/>
</svg>