<svg xmlns="http://www.w3.org/2000/svg" width="17" height="17" viewBox="0 0 17 17" fill="none">
  <path d="M13.9137 6.13341C13.2137 3.05341 10.5271 1.66675 8.16706 1.66675C8.16706 1.66675 8.16706 1.66675 8.16039 1.66675C5.80706 1.66675 3.11372 3.04675 2.41372 6.12675C1.63372 9.56675 3.74039 12.4801 5.64706 14.3134C6.35372 14.9934 7.26039 15.3334 8.16706 15.3334C9.07372 15.3334 9.98039 14.9934 10.6804 14.3134C12.5871 12.4801 14.6937 9.57341 13.9137 6.13341ZM8.16706 9.47341C7.00706 9.47341 6.06706 8.53341 6.06706 7.37341C6.06706 6.21341 7.00706 5.27341 8.16706 5.27341C9.32706 5.27341 10.2671 6.21341 10.2671 7.37341C10.2671 8.53341 9.32706 9.47341 8.16706 9.47341Z" fill="#424242"/>
</svg>