<svg xmlns="http://www.w3.org/2000/svg" width="18" height="24" viewBox="0 0 18 24" fill="none">
  <path fill-rule="evenodd" clip-rule="evenodd" d="M14 5V11C14 13.7614 11.7614 16 9 16C6.23858 16 4 13.7614 4 11V5C4 2.23858 6.23858 0 9 0C11.7614 0 14 2.23858 14 5ZM9 2C7.34315 2 6 3.34315 6 5V11C6 12.6569 7.34315 14 9 14C10.6569 14 12 12.6569 12 11V5C12 3.34315 10.6569 2 9 2ZM1 11C0.447715 11 0 11.4477 0 12V13C0 16.866 3.13401 20 7 20H8V22H6C5.44772 22 5 22.4477 5 23C5 23.5523 5.44772 24 6 24H9H12C12.5523 24 13 23.5523 13 23C13 22.4477 12.5523 22 12 22H10V20H11C14.866 20 18 16.866 18 13V12C18 11.4477 17.5523 11 17 11C16.4477 11 16 11.4477 16 12V13C16 15.7614 13.7614 18 11 18H7C4.23858 18 2 15.7614 2 13V12C2 11.4477 1.55228 11 1 11Z" fill="#627D98"/>
</svg>